<mxfile host="app.diagrams.net" modified="2024-01-16T13:07:23.796Z" agent="Mozilla/5.0 (Macintosh; Intel Mac OS X 10_15_7) AppleWebKit/605.1.15 (KHTML, like Gecko) Version/17.2.1 Safari/605.1.15" version="22.1.16" etag="13FC-Om6pY88kL4f8TIc" type="github">
  <diagram name="Page-1" id="E_QXah6CWFaP2uoi047s">
    <mxGraphModel>
      <root>
        <mxCell id="0" />
        <mxCell id="1" parent="0" />
      </root>
    </mxGraphModel>
  </diagram>
</mxfile>
